# xmcd CD database file
#
# Track frame offsets:
#	150
#	24032
#	45338
#	59634
#	73996
#	89541
#	108768
#	122361
#	144332
#	160356
#	177322
#	194068
#	205493
#	221106
#	245508
#	262879
#	284721
#	300524
#	317821
#	331309
#
# Disc length: 4705 seconds
#
# Revision: 0
# Processed by: cddbd v1.5.1PL0 Copyright (c) Steve Scherf et al.
# Submitted via: CDex 1.51
#
DISCID=2f125f14
DTITLE=A history of UK blues and R&B 1955-2001 - A history of UK blues and R&B 1955-2001 [CD 4)
DYEAR=2002
DGENRE=Blues
TTITLE0=John Mayall_One life to live
TTITLE1=The moody/marsden band_Baby what you wan't
TTITLE2=The blues band_Rolling and tumbling
TTITLE3=The blues band_Let the good times roll
TTITLE4=Connie Lush_Three hundred pounds of joy (live)
TTITLE5=Paul Jones_Not me (live)
TTITLE6=Brian knight and Tom Vines_Meet me in the bottom (live)
TTITLE7=Chris Farlowe_I don't wanna sing the blues no more (live)
TTITLE8=Bernie Marsden_Watch out
TTITLE9=Mick Abrahams_Bad feeling
TTITLE10=Tony McPhee_If I had possession over judgement day
TTITLE11=Nine below zero_Don't gimme no lip child
TTITLE12=The groundhogs_Mannish boy
TTITLE13=Dave Peabody and Brendan Power_Broke down engine
TTITLE14=Bob Hall_Death Ray boogie
TTITLE15=Paul Lamb and The king snakes_Take your time
TTITLE16=Chris Jagger_The libido blues
TTITLE17=Stann Webb_Strange situations
TTITLE18=Big town playboys_Come home
TTITLE19=Gary Moore_Enough of the blues
EXTD=YEAR: 2002
EXTT0=
EXTT1=
EXTT2=
EXTT3=
EXTT4=
EXTT5=
EXTT6=
EXTT7=
EXTT8=
EXTT9=
EXTT10=
EXTT11=
EXTT12=
EXTT13=
EXTT14=
EXTT15=
EXTT16=
EXTT17=
EXTT18=
EXTT19=
PLAYORDER=
